<svg width="18" height="15" viewBox="0 0 18 15" fill="none" xmlns="http://www.w3.org/2000/svg">
<path d="M1 6.36401C0.447715 6.36401 0 6.81173 0 7.36401C0 7.9163 0.447715 8.36401 1 8.36401V7.36401V6.36401ZM16.7732 8.07112C17.1637 7.6806 17.1637 7.04743 16.7732 6.65691L10.4092 0.292946C10.0187 -0.0975785 9.3855 -0.0975785 8.99498 0.292946C8.60446 0.68347 8.60446 1.31664 8.99498 1.70716L14.6518 7.36401L8.99498 13.0209C8.60446 13.4114 8.60446 14.0446 8.99498 14.4351C9.3855 14.8256 10.0187 14.8256 10.4092 14.4351L16.7732 8.07112ZM1 7.36401V8.36401H16.066V7.36401V6.36401H1V7.36401Z" fill="#283A79"/>
</svg>
