<svg width="17" height="17" viewBox="0 0 17 17" fill="none" xmlns="http://www.w3.org/2000/svg">
<path d="M12.854 5.72917C13.2012 5.72917 13.479 5.45139 13.479 5.10417V1.875C13.479 1.52778 13.2012 1.25 12.854 1.25C12.5068 1.25 12.229 1.52778 12.229 1.875V5.10417C12.229 5.44444 12.5137 5.72917 12.854 5.72917Z" fill="black"/>
<path d="M8.3335 10.9375C7.98627 10.9375 7.7085 11.2153 7.7085 11.5625V14.7917C7.7085 15.1389 7.98627 15.4167 8.3335 15.4167C8.68072 15.4167 8.9585 15.1389 8.9585 14.7917V11.5625C8.9585 11.2222 8.68072 10.9375 8.3335 10.9375Z" fill="black"/>
<path d="M3.8125 5.72917C4.15972 5.72917 4.4375 5.45139 4.4375 5.10417V1.875C4.4375 1.52778 4.15972 1.25 3.8125 1.25C3.46528 1.25 3.1875 1.52778 3.1875 1.875V5.10417C3.1875 5.44444 3.46528 5.72917 3.8125 5.72917Z" fill="black"/>
<path d="M5.10433 7.0625H2.521C2.17377 7.0625 1.896 7.34028 1.896 7.6875C1.896 8.03472 2.17377 8.3125 2.521 8.3125H3.18766V14.7917C3.18766 15.1389 3.46544 15.4167 3.81266 15.4167C4.15988 15.4167 4.43766 15.1389 4.43766 14.7917V8.3125H5.10433C5.45155 8.3125 5.72933 8.03472 5.72933 7.6875C5.72933 7.34028 5.44461 7.0625 5.10433 7.0625Z" fill="black"/>
<path d="M14.1458 7.0625H11.5625C11.2153 7.0625 10.9375 7.34028 10.9375 7.6875C10.9375 8.03472 11.2153 8.3125 11.5625 8.3125H12.2292V14.7917C12.2292 15.1389 12.5069 15.4167 12.8542 15.4167C13.2014 15.4167 13.4792 15.1389 13.4792 14.7917V8.3125H14.1458C14.4931 8.3125 14.7708 8.03472 14.7708 7.6875C14.7708 7.34028 14.4931 7.0625 14.1458 7.0625Z" fill="black"/>
<path d="M9.62484 8.35417H8.95817V1.875C8.95817 1.52778 8.68039 1.25 8.33317 1.25C7.98595 1.25 7.70817 1.52778 7.70817 1.875V8.35417H7.0415C6.69428 8.35417 6.4165 8.63194 6.4165 8.97917C6.4165 9.32639 6.69428 9.60417 7.0415 9.60417H9.62484C9.97206 9.60417 10.2498 9.32639 10.2498 8.97917C10.2498 8.63194 9.97206 8.35417 9.62484 8.35417Z" fill="black"/>
</svg>
